<?xml version="1.0" encoding="UTF-8"?>
<svg width="655px" height="58px" viewBox="0 0 655 58" xmlns="http://www.w3.org/2000/svg" xmlns:xlink="http://www.w3.org/1999/xlink" version="1.1">
 <!-- Generated by Pixelmator Pro 2.0.5 -->
 <g id="Logotipo">
  <path id="path2" d="M270.234 30.058 L286.529 52.905 C288.537 55.1 287.526 57.614 285.165 57.58 L251.457 57.58 C249.406 57.604 247.968 55.179 249.566 52.954 L265.967 30.09 C266.932 28.462 269.12 28.373 270.234 30.058 Z" fill="#e94f52" fill-opacity="1" stroke="none"/>
  <path id="path19" d="M93.357 2.75 L97.639 4.511 99.402 8.788 97.639 13.065 93.357 14.827 56.079 14.827 56.079 51.56 54.316 55.838 50.034 57.599 45.752 55.838 43.988 51.56 43.988 14.827 6.207 14.827 2.302 12.877 0.666 8.788 2.428 4.511 6.71 2.75 Z M192.976 36.213 L199.902 40.805 207.081 46.151 209.474 48.478 210.481 51.56 208.718 55.838 204.436 57.599 200.155 55.838 189.575 48.541 178.304 42.251 166.15 37.848 153.053 36.213 127.991 36.213 125.22 37.723 124.087 40.867 124.087 51.56 122.26 55.838 118.041 57.599 113.759 55.838 111.996 51.56 111.996 39.484 113.193 33.508 116.404 28.602 121.19 25.331 127.235 24.136 193.983 24.136 197.321 22.815 198.769 19.481 197.321 16.21 193.983 14.827 118.041 14.827 113.759 13.065 111.996 8.788 113.759 4.511 118.041 2.75 193.479 2.75 200.091 4.071 205.507 7.656 209.159 12.94 210.481 19.481 209.159 26.023 205.507 31.307 200.091 34.892 193.479 36.213 Z M233.78 55.334 L229.12 57.599 224.839 55.838 223.076 51.56 224.335 47.912 254.938 6.775 260.606 2.058 268.162 0.234 275.34 1.869 280.882 6.398 311.485 47.283 312.745 49.233 313.248 51.56 311.485 55.838 307.203 57.599 302.418 55.209 273.074 16.085 270.87 13.883 268.162 12.688 265.454 13.883 263.376 16.085 Z M322.694 30.174 L324.268 20.551 328.865 11.744 336.169 5.266 345.867 2.75 419.29 2.75 423.572 4.511 425.335 8.788 423.572 13.065 419.29 14.827 348.512 14.827 341.396 16.399 337.114 20.236 334.973 25.205 334.406 30.174 334.973 35.143 337.114 40.113 341.396 43.95 348.512 45.522 419.29 45.522 423.572 47.283 425.335 51.56 423.572 55.838 419.29 57.599 344.607 57.599 335.414 55.083 328.55 48.604 324.205 39.735 322.694 30.174 Z M437.929 8.788 L439.692 4.511 443.974 2.75 533.266 2.75 537.548 4.511 539.311 8.788 537.548 13.065 533.266 14.827 443.974 14.827 439.692 13.065 437.929 8.788 Z M453.294 57.599 L447.752 56.404 442.841 53.07 439.314 47.912 437.929 41.119 437.929 29.797 439.881 25.268 445.989 24.136 530.495 24.136 534.777 25.897 536.54 30.174 534.777 34.452 530.495 36.213 450.019 36.213 450.019 42.377 451.09 44.579 453.923 45.522 533.266 45.522 537.548 47.283 539.311 51.56 537.548 55.838 533.266 57.599 Z M568.655 36.213 L562.106 34.892 556.816 31.307 553.227 26.023 551.905 19.481 553.227 12.94 556.816 7.656 562.106 4.071 568.655 2.75 645.1 2.75 649.383 4.511 651.146 8.788 649.383 13.065 645.1 14.827 568.403 14.827 565.065 16.147 563.617 19.481 565.065 22.752 568.403 24.136 638.048 24.136 644.66 25.457 650.012 29.042 653.601 34.389 654.924 40.993 653.601 47.535 650.012 52.818 644.66 56.341 638.048 57.599 561.728 57.599 557.446 55.838 555.683 51.56 557.446 47.283 561.728 45.522 638.552 45.522 641.826 44.201 643.211 40.993 641.826 37.597 638.552 36.213 Z" fill="#1b1918" fill-opacity="1" stroke="none"/>
 </g>
</svg>
